<svg width="620" height="51" fill="none" xmlns="http://www.w3.org/2000/svg"><path d="M110.385 36.535c-6.368 0-12.4.083-14.083 0a6.132 6.132 0 01-5.938-5.8 30.529 30.529 0 010-5.633c.319-3.177 2.983-6.23 5.952-6.368h24.1v-6.271H96.039a12 12 0 00-8.422 3.58 13.874 13.874 0 00-3.524 8.907 42.885 42.885 0 000 5.675 13.625 13.625 0 003.524 8.547 12.487 12.487 0 008.436 3.58h24.35V36.48l-10.018.055zM42.58 12.782v6.23h14.818v23.586h6.257V19.012h14.818v-6.23H42.58zM36.074 24.551a12.085 12.085 0 00-3.524-8.547 13.458 13.458 0 00-8.422-3.538c-2.081-.125-10.253-.083-12.182 0a10.557 10.557 0 00-5.661 1.623V2.751H0v39.958h6.243s-.125-16.372.028-18.134a6.34 6.34 0 015.7-5.924c2.456-.208 9.823-.153 12.14 0a6.133 6.133 0 015.7 6.049v18.037h6.257l.006-18.186zM154.248 15.254h-10.08V11.6h24.318v3.654h-10.08V41h-4.158V15.254zm21.555 7.224c.7-1.288 1.736-2.268 3.108-2.94 1.372-.672 3.038-1.008 4.998-1.008v3.906a7.872 7.872 0 00-.924-.042c-2.184 0-3.906.658-5.166 1.974-1.232 1.288-1.848 3.136-1.848 5.544V41h-4.032V18.74h3.864v3.738zm34.111-3.738V41h-3.822v-3.36c-.812 1.148-1.89 2.044-3.234 2.688-1.316.616-2.758.924-4.326.924-2.968 0-5.306-.812-7.014-2.436-1.708-1.652-2.562-4.074-2.562-7.266V18.74h4.032v12.348c0 2.156.518 3.794 1.554 4.914 1.036 1.092 2.52 1.638 4.452 1.638 2.128 0 3.808-.644 5.04-1.932 1.232-1.288 1.848-3.108 1.848-5.46V18.74h4.032zm27.794 11.256c0 .308-.028.714-.084 1.218h-18.06c.252 1.96 1.106 3.542 2.562 4.746 1.484 1.176 3.318 1.764 5.502 1.764 2.66 0 4.802-.896 6.426-2.688l2.226 2.604c-1.008 1.176-2.268 2.072-3.78 2.688-1.484.616-3.15.924-4.998.924-2.352 0-4.438-.476-6.258-1.428-1.82-.98-3.234-2.338-4.242-4.074-.98-1.736-1.47-3.696-1.47-5.88 0-2.156.476-4.102 1.428-5.838.98-1.736 2.31-3.08 3.99-4.032 1.708-.98 3.626-1.47 5.754-1.47 2.128 0 4.018.49 5.67 1.47 1.68.952 2.982 2.296 3.906 4.032.952 1.736 1.428 3.724 1.428 5.964zm-11.004-8.064c-1.932 0-3.556.588-4.872 1.764-1.288 1.176-2.044 2.716-2.268 4.62h14.28c-.224-1.876-.994-3.402-2.31-4.578-1.288-1.204-2.898-1.806-4.83-1.806zM296.712 11.6L286.884 41h-4.41l-8.022-23.478L266.43 41h-4.494l-9.828-29.4h4.326l7.938 23.898 8.274-23.898h3.864l8.106 24.024 8.106-24.024h3.99zm4.59 7.14h4.032V41h-4.032V18.74zm2.016-4.284c-.784 0-1.442-.252-1.974-.756-.504-.504-.756-1.12-.756-1.848s.252-1.344.756-1.848c.532-.532 1.19-.798 1.974-.798s1.428.252 1.932.756c.532.476.798 1.078.798 1.806 0 .756-.266 1.4-.798 1.932-.504.504-1.148.756-1.932.756zm13.579 8.022c.7-1.288 1.736-2.268 3.108-2.94 1.372-.672 3.038-1.008 4.998-1.008v3.906a7.872 7.872 0 00-.924-.042c-2.184 0-3.906.658-5.166 1.974-1.232 1.288-1.848 3.136-1.848 5.544V41h-4.032V18.74h3.864v3.738zm32.988 7.518c0 .308-.028.714-.084 1.218h-18.06c.252 1.96 1.106 3.542 2.562 4.746 1.484 1.176 3.318 1.764 5.502 1.764 2.66 0 4.802-.896 6.426-2.688l2.226 2.604c-1.008 1.176-2.268 2.072-3.78 2.688-1.484.616-3.15.924-4.998.924-2.352 0-4.438-.476-6.258-1.428-1.82-.98-3.234-2.338-4.242-4.074-.98-1.736-1.47-3.696-1.47-5.88 0-2.156.476-4.102 1.428-5.838.98-1.736 2.31-3.08 3.99-4.032 1.708-.98 3.626-1.47 5.754-1.47 2.128 0 4.018.49 5.67 1.47 1.68.952 2.982 2.296 3.906 4.032.952 1.736 1.428 3.724 1.428 5.964zm-11.004-8.064c-1.932 0-3.556.588-4.872 1.764-1.288 1.176-2.044 2.716-2.268 4.62h14.28c-.224-1.876-.994-3.402-2.31-4.578-1.288-1.204-2.898-1.806-4.83-1.806zm16.603-12.096h4.032V41h-4.032V9.836zm31.849 20.16c0 .308-.028.714-.084 1.218h-18.06c.252 1.96 1.106 3.542 2.562 4.746 1.484 1.176 3.318 1.764 5.502 1.764 2.66 0 4.802-.896 6.426-2.688l2.226 2.604c-1.008 1.176-2.268 2.072-3.78 2.688-1.484.616-3.15.924-4.998.924-2.352 0-4.438-.476-6.258-1.428-1.82-.98-3.234-2.338-4.242-4.074-.98-1.736-1.47-3.696-1.47-5.88 0-2.156.476-4.102 1.428-5.838.98-1.736 2.31-3.08 3.99-4.032 1.708-.98 3.626-1.47 5.754-1.47 2.128 0 4.018.49 5.67 1.47 1.68.952 2.982 2.296 3.906 4.032.952 1.736 1.428 3.724 1.428 5.964zm-11.004-8.064c-1.932 0-3.556.588-4.872 1.764-1.288 1.176-2.044 2.716-2.268 4.62h14.28c-.224-1.876-.994-3.402-2.31-4.578-1.288-1.204-2.898-1.806-4.83-1.806zm22.986 19.32c-1.82 0-3.57-.238-5.25-.714-1.68-.504-2.996-1.134-3.948-1.89l1.68-3.192c.98.7 2.17 1.26 3.57 1.68 1.4.42 2.814.63 4.242.63 3.528 0 5.292-1.008 5.292-3.024 0-.672-.238-1.204-.714-1.596-.476-.392-1.078-.672-1.806-.84-.7-.196-1.708-.406-3.024-.63-1.792-.28-3.262-.602-4.41-.966a6.779 6.779 0 01-2.898-1.848c-.812-.868-1.218-2.086-1.218-3.654 0-2.016.84-3.626 2.52-4.83 1.68-1.232 3.934-1.848 6.762-1.848 1.484 0 2.968.182 4.452.546 1.484.364 2.702.854 3.654 1.47l-1.722 3.192c-1.82-1.176-3.962-1.764-6.426-1.764-1.708 0-3.01.28-3.906.84-.896.56-1.344 1.302-1.344 2.226 0 .728.252 1.302.756 1.722.504.42 1.12.728 1.848.924.756.196 1.806.42 3.15.672 1.792.308 3.234.644 4.326 1.008a6.318 6.318 0 012.856 1.764c.784.84 1.176 2.016 1.176 3.528 0 2.016-.868 3.626-2.604 4.83-1.708 1.176-4.046 1.764-7.014 1.764zm21.041 0c-1.82 0-3.57-.238-5.25-.714-1.68-.504-2.996-1.134-3.948-1.89l1.68-3.192c.98.7 2.17 1.26 3.57 1.68 1.4.42 2.814.63 4.242.63 3.528 0 5.292-1.008 5.292-3.024 0-.672-.238-1.204-.714-1.596-.476-.392-1.078-.672-1.806-.84-.7-.196-1.708-.406-3.024-.63-1.792-.28-3.262-.602-4.41-.966a6.779 6.779 0 01-2.898-1.848c-.812-.868-1.218-2.086-1.218-3.654 0-2.016.84-3.626 2.52-4.83 1.68-1.232 3.934-1.848 6.762-1.848 1.484 0 2.968.182 4.452.546 1.484.364 2.702.854 3.654 1.47l-1.722 3.192c-1.82-1.176-3.962-1.764-6.426-1.764-1.708 0-3.01.28-3.906.84-.896.56-1.344 1.302-1.344 2.226 0 .728.252 1.302.756 1.722.504.42 1.12.728 1.848.924.756.196 1.806.42 3.15.672 1.792.308 3.234.644 4.326 1.008a6.318 6.318 0 012.856 1.764c.784.84 1.176 2.016 1.176 3.528 0 2.016-.868 3.626-2.604 4.83-1.708 1.176-4.046 1.764-7.014 1.764zm47.861-3.906V41h-21.336V11.6h20.748v3.654h-16.548v9.03h14.742v3.57h-14.742v9.492h17.136zm14.031-18.816c3.08 0 5.432.756 7.056 2.268 1.652 1.512 2.478 3.766 2.478 6.762V41h-3.822v-2.94c-.672 1.036-1.638 1.834-2.898 2.394-1.232.532-2.702.798-4.41.798-2.492 0-4.494-.602-6.006-1.806-1.484-1.204-2.226-2.786-2.226-4.746 0-1.96.714-3.528 2.142-4.704 1.428-1.204 3.696-1.806 6.804-1.806h6.384v-.798c0-1.736-.504-3.066-1.512-3.99-1.008-.924-2.492-1.386-4.452-1.386-1.316 0-2.604.224-3.864.672-1.26.42-2.324.994-3.192 1.722l-1.68-3.024c1.148-.924 2.52-1.624 4.116-2.1 1.596-.504 3.29-.756 5.082-.756zm-.924 19.614c1.54 0 2.87-.336 3.99-1.008 1.12-.7 1.932-1.68 2.436-2.94v-3.108h-6.216c-3.416 0-5.124 1.148-5.124 3.444 0 1.12.434 2.002 1.302 2.646.868.644 2.072.966 3.612.966zm21.784-15.666c.7-1.288 1.736-2.268 3.108-2.94 1.372-.672 3.038-1.008 4.998-1.008v3.906a7.872 7.872 0 00-.924-.042c-2.184 0-3.906.658-5.166 1.974-1.232 1.288-1.848 3.136-1.848 5.544V41h-4.032V18.74h3.864v3.738zm24.877-3.948c2.156 0 4.088.476 5.796 1.428a10.127 10.127 0 013.99 3.99c.98 1.708 1.47 3.682 1.47 5.922 0 2.24-.49 4.228-1.47 5.964a10.127 10.127 0 01-3.99 3.99c-1.708.952-3.64 1.428-5.796 1.428-1.652 0-3.164-.322-4.536-.966a8.73 8.73 0 01-3.402-2.814V41h-3.864V9.836h4.032V22.1a8.387 8.387 0 013.36-2.646c1.344-.616 2.814-.924 4.41-.924zm-.336 19.194c1.428 0 2.702-.322 3.822-.966a7.107 7.107 0 002.688-2.772c.672-1.204 1.008-2.576 1.008-4.116 0-1.54-.336-2.898-1.008-4.074-.644-1.204-1.54-2.128-2.688-2.772-1.12-.644-2.394-.966-3.822-.966-1.4 0-2.674.322-3.822.966-1.148.644-2.044 1.568-2.688 2.772-.644 1.176-.966 2.534-.966 4.074s.322 2.912.966 4.116a7.107 7.107 0 002.688 2.772c1.148.644 2.422.966 3.822.966zM565.56 18.74V41h-3.822v-3.36c-.812 1.148-1.89 2.044-3.234 2.688-1.316.616-2.758.924-4.326.924-2.968 0-5.306-.812-7.014-2.436-1.708-1.652-2.562-4.074-2.562-7.266V18.74h4.032v12.348c0 2.156.518 3.794 1.554 4.914 1.036 1.092 2.52 1.638 4.452 1.638 2.128 0 3.808-.644 5.04-1.932 1.232-1.288 1.848-3.108 1.848-5.46V18.74h4.032zm28.676-8.904V41h-3.864v-3.528a8.73 8.73 0 01-3.402 2.814c-1.372.644-2.884.966-4.536.966-2.156 0-4.088-.476-5.796-1.428a10.417 10.417 0 01-4.032-3.99c-.952-1.736-1.428-3.724-1.428-5.964s.476-4.214 1.428-5.922a10.417 10.417 0 014.032-3.99c1.708-.952 3.64-1.428 5.796-1.428 1.596 0 3.066.308 4.41.924a8.387 8.387 0 013.36 2.646V9.836h4.032zM582.77 37.724c1.4 0 2.674-.322 3.822-.966a7.107 7.107 0 002.688-2.772c.644-1.204.966-2.576.966-4.116 0-1.54-.322-2.898-.966-4.074-.644-1.204-1.54-2.128-2.688-2.772-1.148-.644-2.422-.966-3.822-.966-1.428 0-2.716.322-3.864.966-1.12.644-2.016 1.568-2.688 2.772-.644 1.176-.966 2.534-.966 4.074s.322 2.912.966 4.116c.672 1.176 1.568 2.1 2.688 2.772 1.148.644 2.436.966 3.864.966zm25.479 3.528c-1.82 0-3.57-.238-5.25-.714-1.68-.504-2.996-1.134-3.948-1.89l1.68-3.192c.98.7 2.17 1.26 3.57 1.68 1.4.42 2.814.63 4.242.63 3.528 0 5.292-1.008 5.292-3.024 0-.672-.238-1.204-.714-1.596-.476-.392-1.078-.672-1.806-.84-.7-.196-1.708-.406-3.024-.63-1.792-.28-3.262-.602-4.41-.966a6.779 6.779 0 01-2.898-1.848c-.812-.868-1.218-2.086-1.218-3.654 0-2.016.84-3.626 2.52-4.83 1.68-1.232 3.934-1.848 6.762-1.848 1.484 0 2.968.182 4.452.546 1.484.364 2.702.854 3.654 1.47l-1.722 3.192c-1.82-1.176-3.962-1.764-6.426-1.764-1.708 0-3.01.28-3.906.84-.896.56-1.344 1.302-1.344 2.226 0 .728.252 1.302.756 1.722.504.42 1.12.728 1.848.924.756.196 1.806.42 3.15.672 1.792.308 3.234.644 4.326 1.008a6.318 6.318 0 012.856 1.764c.784.84 1.176 2.016 1.176 3.528 0 2.016-.868 3.626-2.604 4.83-1.708 1.176-4.046 1.764-7.014 1.764z" fill="#fff"/></svg>