<?xml version="1.0" encoding="UTF-8" standalone="no"?>
<svg width="57px" height="62px" viewBox="0 0 57 62" version="1.1" xmlns="http://www.w3.org/2000/svg" xmlns:xlink="http://www.w3.org/1999/xlink">
    <!-- Generator: sketchtool 40.3 (33839) - http://www.bohemiancoding.com/sketch -->
    <title>38AF052D-BA33-4A37-8027-921BC93AC1F9</title>
    <desc>Created with sketchtool.</desc>
    <defs></defs>
    <g id="Page-1" stroke="none" stroke-width="1" fill="none" fill-rule="evenodd" stroke-linecap="round" stroke-linejoin="round">
        <g id="desktop_icons" transform="translate(-396.000000, -1128.000000)" stroke="#000000">
            <g id="warranty_n_repair" transform="translate(386.000000, 1122.000000)">
                <g id="Page-1" transform="translate(11.000000, 7.000000)">
                    <path d="M38,17 L38,3.00029093 C38,1.34338646 36.6568766,0.0002 34.9920699,0.0002 L13.0032995,0.0002 C12.4491924,0.0002 11.6790315,0.321165655 11.2941515,0.706042479 L0.705948369,11.2941572 C0.316119079,11.6839833 0.0001,12.4551728 0.0001,13.0004192 L0.0001,44.9925816 C0.0001,46.6535338 1.33672277,48.0000016 3.00955896,48.0000016 L16.0000008,48.0000016" id="Stroke-1" stroke-width="2"></path>
                    <path d="M0,12.9999998 L10.0012144,12.9999998 C11.6573979,12.9999998 13,11.6577355 13,10.0012142 L13,0" id="Stroke-3" stroke-width="2"></path>
                    <path d="M54.1631088,25.329867 C53.9144334,24.6894467 53.0797987,24.5217176 52.5948339,25.0067978 L47.4812669,30.1215829 C46.1530924,31.4500738 44.0560249,31.8331823 42.4591666,30.8430087 C40.2563406,29.4763976 39.9400179,26.4420254 41.6740764,24.7075538 L46.9848688,19.3954964 C47.4698335,18.9104161 47.3011916,18.0755826 46.6618766,17.8268479 C42.0542354,16.039008 36.8634932,17.1921457 33.1743313,20.8821863 C29.7243171,24.3330223 28.5371539,29.1285503 30.053026,33.6991688 C30.1673595,34.0451101 30.0901844,34.4244066 29.8329339,34.6817184 L12.5580905,51.9606766 C11.8139698,52.7049746 11.8139698,53.9114806 12.5580905,54.6557786 L17.3429487,59.4417765 C18.0870694,60.1860745 19.2932882,60.1860745 20.0374089,59.4417765 L37.2998661,42.1761603 C37.5571166,41.9178956 37.9372756,41.8416551 38.2821817,41.9560159 C42.850759,43.477967 47.6823033,42.3143463 51.1418453,38.8539802 C54.8310072,35.1639396 55.9562397,29.9433707 54.1631088,25.329867 Z" id="Stroke-5" stroke-width="2"></path>
                </g>
            </g>
        </g>
    </g>
</svg>