<?xml version="1.0" encoding="utf-8"?>
<!-- Generator: Adobe Illustrator 22.0.1, SVG Export Plug-In . SVG Version: 6.00 Build 0)  -->
<svg version="1.1" id="圖層_1" xmlns="http://www.w3.org/2000/svg" xmlns:xlink="http://www.w3.org/1999/xlink" x="0px" y="0px"
	 viewBox="0 0 50 50" style="enable-background:new 0 0 50 50;" xml:space="preserve">
<style type="text/css">
	.st0{fill:#4A4A4A;}
</style>
<g>
	<path class="st0" d="M14.6,9.7c-2.7,0-4.4,1.1-4.4,1.1v0c-1,0.3-1.7,1.6-1.7,3.1c0,1.5,0.7,2.8,1.7,3.1v0c1.9,1.1,4.4,0.8,4.4,0.8
		c1.2,0,2.2-1.8,2.2-4.1C16.8,11.5,15.8,9.7,14.6,9.7z M9.4,15.7c-0.4,0-0.6-0.7-0.6-1.5s0.3-1.5,0.6-1.5s0.6,0.7,0.6,1.5
		S9.7,15.7,9.4,15.7z"/>
	<path class="st0" d="M25,11.4c0-0.9-0.5-0.7-1-0.8c-0.6,0-2.7-1.3-3.2-1.6c-0.4-0.3-1.6-0.4-2.5-0.5c-1-0.1-1.3,0.9-1.3,1
		c-0.1,0.2-0.1,0.5-0.2,0.7c0.8,0.7,1.3,2.2,1.3,3.9c0,1.6-0.4,3-1.1,3.7c0.3,0.8,0.5,1.2,0.6,1.2c0.3,0.2,0.6,0.2,1.7,0.1
		c1.2,0,2.2-0.9,2.2-0.9v0.8h0c0,9.1,0,25.4,0,29.5h1.2c0-0.1,0-0.2,0-0.3c0-0.8,0-2,0-3.5c0-2.9,0-6.7,0-10.5c0-5.8,0-11.6,0-14
		h0.6v0c0.4,0,0.3-0.6,0.3-0.6v-2.4h0.8c0.8,0,0.6-0.7,0.6-0.7V11.4z"/>
	<path class="st0" d="M31.8,8.5c-0.6-0.8-0.9-1.7-0.9-2.8c0-1.2,0.5-2.3,1.2-3.1c-1.3,0.3-2.4,1.5-2.4,3C29.7,7,30.6,8.1,31.8,8.5z"
		/>
	<path class="st0" d="M36.8,1.4c-2.6,0-4.7,2.1-4.7,4.7c0,1.3,0.5,2.4,1.3,3.3c-0.1,0.1-0.2,0.3-0.1,0.6l-2,2.7l0,0
		c-0.6,0.8-3.9,5.5-3.9,14.5c0,0.1,0,6.2,0,12.3c0,3.6,0,6.4,0,8.5c0,0.2,0,0.4,0,0.6h1.2c0-4.9,0-14.4,0-21.4c0-8.7,3-13,3.6-13.8
		c0,0,0,0,0,0l1.9-2.6c0.2,0.1,0.5,0.2,0.8-0.3c0,0,0,0,0,0c0.6,0.2,1.2,0.4,1.8,0.4c2.6,0,4.7-2.1,4.7-4.7
		C41.5,3.5,39.4,1.4,36.8,1.4z M36.8,9.2c-1.7,0-3.1-1.4-3.1-3.1c0-1.7,1.4-3.1,3.1-3.1s3.1,1.4,3.1,3.1C39.9,7.8,38.5,9.2,36.8,9.2
		z"/>
	<path class="st0" d="M36.8,3.8c-1.3,0-2.4,1.1-2.4,2.4c0,1.3,1.1,2.4,2.4,2.4s2.4-1.1,2.4-2.4C39.1,4.8,38.1,3.8,36.8,3.8z"/>
</g>
</svg>
