<?xml version="1.0" encoding="UTF-8" standalone="no"?>
<svg width="100px" height="100px" viewBox="0 0 100 100" version="1.1" xmlns="http://www.w3.org/2000/svg" xmlns:xlink="http://www.w3.org/1999/xlink">
    <!-- Generator: sketchtool 39.1 (31720) - http://www.bohemiancoding.com/sketch -->
    <title>B82FCCA4-9D93-44AB-A1A9-5CBD055F4ABE</title>
    <desc>Created with sketchtool.</desc>
    <defs></defs>
    <g id="Symbols" stroke="none" stroke-width="1" fill="none" fill-rule="evenodd">
        <g id="one_icon">
            <rect id="Rectangle-3" stroke="#000000" stroke-width="2" fill="#E5CFB7" x="13" y="1" width="42" height="83" rx="5"></rect>
            <rect id="Rectangle-3-Copy-2" stroke="#000000" stroke-width="2" fill="#FFFFFF" x="46" y="16" width="42" height="83" rx="5"></rect>
            <rect id="Rectangle-2" fill="#000000" x="60" y="20" width="12" height="2" rx="1"></rect>
            <rect id="Rectangle-2-Copy-2" fill="#000000" x="75" y="20" width="2" height="2" rx="1"></rect>
            <rect id="Rectangle-2-Copy" fill="#000000" x="58" y="93" width="18" height="2" rx="1"></rect>
            <path d="M34.0698,21.3355 L31.2038,21.3355 C29.5468,21.3355 28.2038,19.9925 28.2038,18.3355 L28.2038,15.4695 C28.2038,13.8125 29.5468,12.4695 31.2038,12.4695 L34.0698,12.4695 C35.7268,12.4695 37.0698,13.8125 37.0698,15.4695 L37.0698,18.3355 C37.0698,19.9925 35.7268,21.3355 34.0698,21.3355" id="Fill-5" fill="#808080"></path>
            <rect id="Rectangle" stroke="#000000" stroke-width="2" fill="#808080" x="29" y="12" width="9" height="9" rx="3"></rect>
            <rect id="Rectangle-4" fill="#000000" x="23" y="14" width="2" height="5" rx="1"></rect>
            <rect id="Rectangle-5" stroke="#000000" stroke-width="2" fill="#959595" x="46" y="26" width="42" height="63"></rect>
        </g>
    </g>
</svg>