<?xml version="1.0" encoding="UTF-8" standalone="no"?>
<svg width="100px" height="100px" viewBox="0 0 100 100" version="1.1" xmlns="http://www.w3.org/2000/svg" xmlns:xlink="http://www.w3.org/1999/xlink">
    <!-- Generator: sketchtool 41.1 (35376) - http://www.bohemiancoding.com/sketch -->
    <title>0CB34FB3-C886-4FA0-B2E4-C202189E3DB2</title>
    <desc>Created with sketchtool.</desc>
    <defs>
        <rect id="path-1" x="0" y="0" width="42" height="83" rx="5"></rect>
        <linearGradient x1="38.0270858%" y1="41.7520082%" x2="61.8918692%" y2="100%" id="linearGradient-3">
            <stop stop-color="#5FC3FD" offset="0%"></stop>
            <stop stop-color="#450099" offset="100%"></stop>
        </linearGradient>
    </defs>
    <g id="Symbols" stroke="none" stroke-width="1" fill="none" fill-rule="evenodd">
        <g id="U_icon">
            <g id="Group-2" transform="translate(13.000000, 1.000000)">
                <mask id="mask-2" fill="white">
                    <use xlink:href="#path-1"></use>
                </mask>
                <use id="Rectangle-3" stroke="#000000" stroke-width="2" fill="#3F62FF" xlink:href="#path-1"></use>
                <polygon id="Rectangle-6" fill="url(#linearGradient-3)" opacity="0.285214552" mask="url(#mask-2)" points="-6 87 55 87 55 4 -6 66"></polygon>
                <path d="M21.0698,20.3355 L18.2038,20.3355 C16.5468,20.3355 15.2038,18.9925 15.2038,17.3355 L15.2038,14.4695 C15.2038,12.8125 16.5468,11.4695 18.2038,11.4695 L21.0698,11.4695 C22.7268,11.4695 24.0698,12.8125 24.0698,14.4695 L24.0698,17.3355 C24.0698,18.9925 22.7268,20.3355 21.0698,20.3355" id="Fill-5" fill="#808080" mask="url(#mask-2)"></path>
                <rect id="Rectangle" stroke="#000000" stroke-width="2" fill="#303030" mask="url(#mask-2)" x="16" y="11" width="9" height="9" rx="3"></rect>
                <rect id="Rectangle-4" fill="#000000" mask="url(#mask-2)" x="28" y="13" width="2" height="5" rx="1"></rect>
            </g>
            <rect id="Rectangle-3-Copy-2" stroke="#000000" stroke-width="2" fill="#4D4D4D" x="46" y="16" width="42" height="83" rx="5"></rect>
            <rect id="Rectangle-2" fill="#000000" x="60" y="20" width="12" height="2" rx="1"></rect>
            <rect id="Rectangle-2-Copy" fill="#000000" x="63" y="93" width="9" height="2" rx="1"></rect>
            <rect id="Rectangle-5" stroke="#000000" stroke-width="2" fill="#959595" x="46" y="26" width="42" height="63"></rect>
        </g>
    </g>
</svg>