<?xml version="1.0" encoding="utf-8"?>
<!-- Generator: Adobe Illustrator 23.0.0, SVG Export Plug-In . SVG Version: 6.00 Build 0)  -->
<svg version="1.1" id="圖層_1" xmlns="http://www.w3.org/2000/svg" xmlns:xlink="http://www.w3.org/1999/xlink" x="0px" y="0px"
	 viewBox="0 0 50 50" style="enable-background:new 0 0 50 50;" xml:space="preserve">
<style type="text/css">
	.st0{fill:#4A4A4A;}
</style>
<g>
	<path class="st0" d="M21.5,13h7.1c0.8,0,1.4-0.6,1.4-1.4V9.2c0-1.6-1.3-2.8-2.8-2.8h-4.3c-1.5,0-2.8,1.2-2.8,2.8v2.4
		C20.1,12.4,20.7,13,21.5,13z"/>
	<path class="st0" d="M35.6,14.4H14.4c-6.8,0-12.2,5.5-12.2,12.2v4.7c0,6.8,5.5,12.2,12.2,12.2h21.2c3.3,0,6.5-1.3,8.8-3.7
		c2.3-2.3,3.5-5.4,3.5-8.6v-4.7C47.8,19.9,42.4,14.4,35.6,14.4z M3.6,31.4v-4.7c0-5.9,4.8-10.8,10.8-10.8h9.8v7.8h-6.4
		c-2.3,0-4.2,1.8-4.2,4.1v2.4c0,2.3,1.8,4.1,4.2,4.1h6.4v7.7h-9.8C8.5,42.1,3.6,37.3,3.6,31.4z M25.8,25.2L25.8,25.2l6.5,0
		c1.5,0,2.6,1.2,2.6,2.6v2.4c0,1.4-1.2,2.6-2.6,2.6H17.8c-1.5,0-2.7-1.2-2.7-2.6v-2.4c0-1.5,1.2-2.6,2.7-2.6h6.4v0H25.8z M46.3,31.4
		c0,2.8-1,5.5-3,7.5c-2,2.1-4.8,3.2-7.7,3.2h-9.8v-7.7h6.5c2.2,0,4.1-1.9,4.1-4.1v-2.4c0-2.3-1.8-4.1-4.1-4.1h-6.5v-7.8h9.8
		c5.9,0,10.8,4.8,10.8,10.8V31.4z"/>
	<path class="st0" d="M19.4,26.2c-1.5,0-2.8,1.2-2.8,2.8s1.2,2.8,2.8,2.8s2.8-1.2,2.8-2.8S20.9,26.2,19.4,26.2z M19.4,30.2
		c-0.7,0-1.2-0.6-1.2-1.2s0.6-1.2,1.2-1.2s1.2,0.6,1.2,1.2S20.1,30.2,19.4,30.2z"/>
	<path class="st0" d="M30.7,31.7c1.5,0,2.8-1.2,2.8-2.8s-1.2-2.8-2.8-2.8s-2.8,1.2-2.8,2.8S29.2,31.7,30.7,31.7z M30.7,27.7
		c0.7,0,1.2,0.6,1.2,1.2s-0.6,1.2-1.2,1.2s-1.2-0.6-1.2-1.2S30,27.7,30.7,27.7z"/>
	<path class="st0" d="M9.8,22.2c-0.9,0-1.6,0.7-1.6,1.6c0,0.9,0.7,1.6,1.6,1.6s1.6-0.7,1.6-1.6C11.4,22.9,10.7,22.2,9.8,22.2z"/>
	<path class="st0" d="M17.5,21.3c0.9,0,1.6-0.7,1.6-1.6s-0.7-1.6-1.6-1.6c-0.9,0-1.6,0.7-1.6,1.6S16.6,21.3,17.5,21.3z"/>
	<path class="st0" d="M9.4,30.6c-0.9,0-1.6,0.7-1.6,1.6s0.7,1.6,1.6,1.6s1.6-0.7,1.6-1.6S10.3,30.6,9.4,30.6z"/>
	<path class="st0" d="M17.6,36.9c-0.9,0-1.6,0.7-1.6,1.6c0,0.9,0.7,1.6,1.6,1.6s1.6-0.7,1.6-1.6C19.2,37.6,18.5,36.9,17.6,36.9z"/>
	<path class="st0" d="M40.1,25.4c0.9,0,1.6-0.7,1.6-1.6c0-0.9-0.7-1.6-1.6-1.6s-1.6,0.7-1.6,1.6C38.5,24.7,39.2,25.4,40.1,25.4z"/>
	<path class="st0" d="M32.4,18.1c-0.9,0-1.6,0.7-1.6,1.6s0.7,1.6,1.6,1.6s1.6-0.7,1.6-1.6S33.3,18.1,32.4,18.1z"/>
	<path class="st0" d="M40.5,30.6c-0.9,0-1.6,0.7-1.6,1.6s0.7,1.6,1.6,1.6c0.9,0,1.6-0.7,1.6-1.6S41.4,30.6,40.5,30.6z"/>
	<path class="st0" d="M32.3,36.9c-0.9,0-1.6,0.7-1.6,1.6c0,0.9,0.7,1.6,1.6,1.6s1.6-0.7,1.6-1.6C33.9,37.6,33.2,36.9,32.3,36.9z"/>
	<path class="st0" d="M8.2,15c2.1-1.3,4.2-1.6,5.2-1.7c0.3,0,0.5-0.2,0.7-0.4c1.4-2,3.5-2.4,4.5-2.4c0.4,0,0.6-0.3,0.6-0.6V9.2
		c0-0.3-0.2-0.5-0.5-0.5c-6.9,0.5-10,4.8-10.7,6.1C8,15,8.1,15.1,8.2,15z"/>
	<path class="st0" d="M31.6,10.5c1,0.1,3.1,0.4,4.5,2.4c0.2,0.2,0.4,0.4,0.7,0.4c1,0.1,3.1,0.4,5.2,1.7c0.1,0,0.3-0.1,0.2-0.2
		c-0.7-1.3-3.8-5.6-10.7-6.1c-0.3,0-0.5,0.2-0.5,0.5v0.7C31,10.2,31.3,10.5,31.6,10.5z"/>
</g>
</svg>
