<?xml version="1.0" encoding="UTF-8"?>
<svg width="224px" height="32px" viewBox="0 0 224 32" version="1.1" xmlns="http://www.w3.org/2000/svg" xmlns:xlink="http://www.w3.org/1999/xlink">
    <title>vive-pro-2-logo-m</title>
    <defs>
        <polygon id="path-1" points="-4.60860775e-16 0 36.2354632 0 36.2354632 32 -4.60860775e-16 32"></polygon>
        <polygon id="path-3" points="3.63016488e-14 0 12.512443 0 12.512443 20.0065359 3.63016488e-14 20.0065359"></polygon>
    </defs>
    <g id="Page-1" stroke="none" stroke-width="1" fill="none" fill-rule="evenodd">
        <g id="HTC-mobile" transform="translate(-272.000000, -696.000000)">
            <g id="vive-pro-2-logo-m" transform="translate(272.000000, 696.000000)">
                <g id="Group-3" transform="translate(-0.000000, 0.000000)">
                    <mask id="mask-2" fill="white">
                        <use xlink:href="#path-1"></use>
                    </mask>
                    <g id="Clip-2"></g>
                    <path d="M24.5193621,26.6646044 C22.4982725,27.3025912 20.3475419,27.6458523 18.1155463,27.6458523 C15.8862648,27.6458523 13.7361729,27.3027508 11.7162009,26.666201 C9.35185015,25.9207656 7.89211223,23.5232063 8.40077733,21.0969089 C9.32630513,16.6828901 11.6212054,12.7719484 14.8211974,9.82884341 C16.6872607,8.11269742 19.5441512,8.11221845 21.4106935,9.82788548 C24.6113241,12.7698728 26.9073419,16.6809742 27.8331891,21.0951527 C28.3420138,23.5211308 26.8830742,25.9183707 24.5193621,26.6646044 L24.5193621,26.6646044 Z M22.4946004,1.17946121 C22.0731076,0.449672081 21.2939847,-7.98281699e-05 20.4509992,-7.98281699e-05 L15.7820092,-7.98281699e-05 C14.9390238,-7.98281699e-05 14.1599008,0.449672081 13.7380888,1.17978052 L0.316259255,24.4204749 C-0.105393138,25.1509027 -0.105393138,26.0505662 0.316099598,26.7808343 L2.64756113,30.8198203 C3.06921352,31.5502481 3.84833646,32 4.69164125,32 L31.5418462,32 C32.3848317,32 33.1637949,31.5504077 33.5854473,30.8206186 L35.9189844,26.7809939 C36.3409561,26.0507258 36.3409561,25.1505834 35.9189844,24.419996 L22.4946004,1.17946121 Z" id="Fill-1" fill="#00B3E3" mask="url(#mask-2)"></path>
                </g>
                <path d="M104.732942,9.31615498 L96.6198458,25.2744448 C96.4898855,25.5300546 96.2261333,25.6925847 95.9339621,25.6925847 L93.2593991,25.6925847 C92.9712195,25.6925847 92.7073075,25.5300546 92.5735155,25.2744448 L84.4644104,9.31615498 C84.3266269,9.04841129 84.3387608,8.73165312 84.4846867,8.47205191 L85.3508224,6.97415613 C85.5192598,6.68294297 85.8302703,6.5036489 86.1663469,6.5036489 L86.9524948,6.5036489 C87.1552583,6.5036489 87.3460476,6.61732421 87.4352955,6.80380281 L94.2526212,20.3650123 C94.3955137,20.6495199 94.8016794,20.6495199 94.9444122,20.3650123 L101.757906,6.80380281 C101.847314,6.61732421 102.037943,6.5036489 102.245018,6.5036489 L103.026855,6.5036489 C103.363251,6.5036489 103.673942,6.68294297 103.842379,6.97415613 L104.71091,8.47604332 C104.860188,8.73420762 104.868491,9.05048683 104.732942,9.31615498" id="Fill-4" fill="#FFFFFF"></path>
                <path d="M64.5557597,9.31615498 L56.4428228,25.2744448 C56.3127029,25.5300546 56.0489506,25.6925847 55.7566199,25.6925847 L53.0822165,25.6925847 C52.7938772,25.6925847 52.5302846,25.5300546 52.3963329,25.2744448 L44.2872277,9.31615498 C44.1492847,9.04841129 44.1615782,8.73165312 44.3076638,8.47205191 L45.1752363,6.97128231 C45.3427158,6.68182537 45.6516508,6.5036489 45.9858115,6.5036489 L46.7753121,6.5036489 C46.9780757,6.5036489 47.1687054,6.61732421 47.2581129,6.80380281 L54.0754386,20.3650123 C54.218331,20.6495199 54.6244968,20.6495199 54.7673892,20.3650123 L61.5807235,6.80380281 C61.6699714,6.61732421 61.8607607,6.5036489 62.0676753,6.5036489 L62.8528652,6.5036489 C63.1871856,6.5036489 63.4962803,6.68182537 63.6636001,6.97128231 L64.5337272,8.47604332 C64.6830058,8.73420762 64.691308,9.05048683 64.5557597,9.31615498" id="Fill-6" fill="#FFFFFF"></path>
                <path d="M76.1744944,6.73063231 C76.0343161,6.59045405 75.8395354,6.50328169 75.6239993,6.50328169 L74.4102918,6.50328169 C74.0750135,6.50328169 73.7654399,6.68209679 73.59812,6.97267132 L72.733581,8.4742392 C72.656467,8.60914881 72.6155949,8.7613013 72.6155949,8.91521001 L72.6155949,24.9151701 C72.6155949,25.3446457 72.9638054,25.6930158 73.393281,25.6930158 L75.6324611,25.6930158 C76.0584242,25.6930158 76.4036013,25.3476791 76.4036013,24.9220353 L76.4036013,7.28272394 C76.4036013,7.06734753 76.3162692,6.87240714 76.1744944,6.73063231" id="Fill-8" fill="#FFFFFF"></path>
                <path d="M113.778863,6.9715218 C113.946502,6.68174554 114.256235,6.50324975 114.591035,6.50324975 L126.208428,6.50324975 C126.536522,6.50324975 126.83971,6.67791379 127.004315,6.96162311 L127.822075,8.36835512 C127.938464,8.57000107 127.999932,8.79894826 127.999932,9.03140789 L127.999932,9.38185356 C127.999932,9.66907532 127.76412,9.90840017 127.471789,9.90840017 L116.882103,9.90840017 C116.668643,9.90840017 116.493979,10.0830642 116.493979,10.2963651 L116.493979,13.9697381 C116.493979,14.1831987 116.667046,14.3561065 116.880347,14.3561065 L124.058017,14.3561065 C124.406866,14.3612155 124.690416,14.6450845 124.690416,14.9939336 L124.690416,17.1049097 C124.690416,17.4556747 124.403673,17.7425771 124.053068,17.7425771 L116.880347,17.7425771 C116.667046,17.7425771 116.493979,17.9154849 116.493979,18.1289454 L116.493979,21.9014651 C116.493979,22.1149256 116.667046,22.2878334 116.880347,22.2878334 L127.471789,22.2878334 C127.76412,22.2878334 127.999932,22.5218896 127.999932,22.810708 L127.999932,23.1630695 C127.999932,23.3972853 127.938464,23.6262325 127.822075,23.8280381 L127.004315,25.2378036 C126.83971,25.5216726 126.536522,25.696177 126.208428,25.696177 L114.591035,25.696177 C114.256235,25.696177 113.946502,25.5180005 113.778863,25.2282242 L112.970842,23.8329875 C112.853016,23.629745 112.791389,23.4004785 112.791389,23.1664223 L112.793304,9.02981133 C112.793304,8.7973517 112.854772,8.5680852 112.970842,8.36643924 L113.778863,6.9715218 Z" id="Fill-10" fill="#FFFFFF"></path>
                <path d="M162.813396,8.37544386 L162.813396,15.8844008 C162.813396,16.0129242 162.917652,16.1171798 163.046175,16.1171798 L168.167152,16.1171798 C171.097804,16.1171798 172.591229,14.3419609 172.591229,11.9750557 C172.591229,9.6079908 171.041605,8.14266491 168.167152,8.14266491 L163.046175,8.14266491 C162.917652,8.14266491 162.813396,8.2469205 162.813396,8.37544386 L162.813396,8.37544386 Z M160.812743,6.62832453 C160.812743,6.49980118 160.916998,6.39570524 161.045522,6.39570524 L168.082694,6.39570524 C172.337695,6.39570524 174.591883,8.45255787 174.591883,11.9750557 C174.591883,14.8279548 173.124641,16.9212091 170.341672,17.6228987 C170.188082,17.6616952 170.120548,17.8425858 170.205165,17.9762182 L174.928758,25.4248251 C175.026947,25.5798514 174.915666,25.7822956 174.732061,25.7822956 L173.112507,25.7822956 C173.033477,25.7822956 172.959716,25.7420622 172.916928,25.6754855 L167.95433,17.9709495 C167.911383,17.9045325 167.837622,17.8642991 167.758592,17.8642991 L163.046175,17.8642991 C162.917652,17.8642991 162.813396,17.968395 162.813396,18.097078 L162.813396,25.5495167 C162.813396,25.67804 162.709141,25.7822956 162.580617,25.7822956 L161.045522,25.7822956 C160.916998,25.7822956 160.812743,25.67804 160.812743,25.5495167 L160.812743,6.62832453 Z" id="Fill-12" fill="#00B3E3"></path>
                <path d="M190.849305,24.260627 C195.132246,24.260627 198.062898,20.766548 198.062898,16.0889366 C198.062898,11.4114848 195.132246,7.91724613 190.849305,7.91724613 C186.538105,7.91724613 183.635712,11.4114848 183.635712,16.0889366 C183.635712,20.766548 186.538105,24.260627 190.849305,24.260627 M190.849305,6.08582825 C196.287519,6.08582825 200.148009,10.3406697 200.148009,16.0889366 C200.148009,21.8373631 196.287519,26.0922045 190.849305,26.0922045 C185.298054,26.0922045 181.550441,21.8373631 181.550441,16.0889366 C181.550441,10.3406697 185.298054,6.08582825 190.849305,6.08582825" id="Fill-14" fill="#00B3E3"></path>
                <path d="M149.048258,17.6948399 C152.020739,17.0836754 153.615387,14.9327852 153.615387,11.9722777 C153.615387,8.44802363 151.361997,6.38957444 147.103164,6.38957444 L139.180219,6.39053238 C139.053132,6.39053238 138.949834,6.49383003 138.949834,6.6201182 L138.949834,14.6473196 C138.949834,14.7086277 138.974422,14.7672216 139.017369,14.8101691 L139.787871,15.5787547 C139.88111,15.6702378 140.031027,15.6683219 140.118998,15.5723685 L140.88934,14.8055391 C140.929573,14.7635495 140.951606,14.7078294 140.951606,14.6482776 L140.951606,8.42902452 C140.951606,8.30177842 141.054903,8.19848077 141.181191,8.19848077 L147.187303,8.19848077 C150.063832,8.19848077 151.612658,9.60537244 151.612658,11.9722777 C151.612658,14.3390233 150.12051,16.115679 147.187303,16.115679 L143.16093,16.115679 C143.101538,16.115679 143.041986,16.1394678 142.998081,16.1835329 L142.355943,16.827427 C142.265258,16.9163555 142.265258,17.0627604 142.355943,17.1532856 L142.998081,17.7946251 C143.041986,17.8393288 143.101538,17.8631176 143.16093,17.8631176 L146.90567,17.8631176 C146.90567,17.8631176 147.943915,17.8870661 149.048258,17.6948399 M139.791543,18.3994033 L139.020083,19.1705434 C138.974422,19.2144489 138.949834,19.2740007 138.949834,19.337065 L138.949834,25.5545618 C138.949834,25.6818079 139.053132,25.7860635 139.180219,25.7860635 L140.720902,25.7860635 C140.84719,25.7860635 140.951606,25.6818079 140.951606,25.5545618 L140.951606,19.3260487 C140.951606,19.2676145 140.929573,19.2107768 140.88934,19.1705434 L140.116284,18.4048316 C140.029271,18.3123906 139.882866,18.3104747 139.791543,18.3994033" id="Fill-16" fill="#00B3E3"></path>
                <g id="Group-20" transform="translate(211.110461, 5.690216)">
                    <mask id="mask-4" fill="white">
                        <use xlink:href="#path-3"></use>
                    </mask>
                    <g id="Clip-19"></g>
                    <path d="M6.56251419,0 C8.48733102,0 9.96111869,0.427240365 10.9818017,1.28283869 C12.0021653,2.13843701 12.5125867,3.3832775 12.5125867,5.01608288 L12.5125867,5.71633559 C12.5125867,6.8637857 12.1661324,7.8986781 11.4776943,8.82181105 C10.7870209,9.74510366 9.64308326,10.6837233 8.05051127,11.636712 L5.60122337,13.094055 C4.47149511,13.775149 3.65501259,14.4894515 3.14954061,15.2382397 C2.64390899,15.9871876 2.39245025,16.8569953 2.39245025,17.8479822 L11.8693313,17.8479822 C12.1043454,17.8479822 12.2633631,17.887098 12.3511741,17.9653296 C12.4389851,18.0424436 12.4816133,18.1979489 12.4816133,18.4316858 L12.4816133,19.4226727 C12.4816133,19.6564096 12.4389851,19.8119149 12.3511741,19.8901465 C12.2633631,19.9672605 12.1043454,20.0065359 11.8693313,20.0065359 L0.612282063,20.0065359 C0.204040802,20.0065359 3.63016488e-14,19.8119149 3.63016488e-14,19.4226727 L3.63016488e-14,18.6061902 C3.63016488e-14,17.7897077 0.0783912628,17.0421967 0.235014132,16.3609431 C0.389242156,15.6809667 0.643255393,15.0484083 0.992104495,14.4658223 C1.3409536,13.8819591 1.78958791,13.3420013 2.33305809,12.8470667 C2.87892312,12.3510144 3.52920339,11.8693313 4.2886886,11.4029751 L6.73813616,9.94451443 C7.92246689,9.24426173 8.76960343,8.55486565 9.27523506,7.87361205 C9.78070703,7.19379536 10.0323254,6.41642864 10.0323254,5.54071361 L10.0323254,5.19058726 C10.0323254,3.05215025 8.8267604,1.98293174 6.41770589,1.98293174 C5.28797763,1.98293174 4.4334969,2.19192189 3.84963366,2.60958287 C3.26593009,3.02836145 2.84794979,3.72382447 2.59649105,4.69581226 C2.556098,4.90943245 2.49447065,5.04577896 2.40665967,5.10389387 C2.31884868,5.16216843 2.15983096,5.19058726 1.92481683,5.19058726 L0.963685667,5.19058726 C0.70967243,5.19058726 0.541234992,5.15258905 0.453264348,5.07435745 C0.365613018,4.99708378 0.320430274,4.85115788 0.320430274,4.63642011 C0.320430274,4.15106483 0.432030055,3.63601348 0.657464807,3.09126605 C0.880504714,2.54667828 1.15814709,2.10985853 1.48815674,1.77889094 C2.61549016,0.593282958 4.3076877,0 6.56251419,0" id="Fill-18" fill="#FFFFFF" mask="url(#mask-4)"></path>
                </g>
            </g>
        </g>
    </g>
</svg>