<?xml version="1.0" encoding="UTF-8" standalone="no"?>
<svg width="42px" height="57px" viewBox="0 0 42 57" version="1.1" xmlns="http://www.w3.org/2000/svg" xmlns:xlink="http://www.w3.org/1999/xlink">
    <!-- Generator: sketchtool 40.3 (33839) - http://www.bohemiancoding.com/sketch -->
    <title>21CDB77C-281F-4F85-99D5-8DD815765A59</title>
    <desc>Created with sketchtool.</desc>
    <defs></defs>
    <g id="Page-1" stroke="none" stroke-width="1" fill="none" fill-rule="evenodd">
        <g id="desktop_icons" transform="translate(-300.000000, -1127.000000)" stroke="#000000" stroke-width="2">
            <g id="Online_shopping_help" transform="translate(286.000000, 1122.000000)">
                <path d="M15.9284838,22.0036812 C15.9679811,20.3447939 17.3524401,19 18.9976599,19 L51.0023401,19 C52.657902,19 54.0321392,20.3498463 54.0715162,22.0036812 L54.9284838,57.9963188 C54.9679811,59.6552061 53.6576906,61 51.9934988,61 L18.0065012,61 C16.3460564,61 15.0321392,59.6501537 15.0715162,57.9963188 L15.9284838,22.0036812 Z" id="Rectangle"></path>
                <path d="M45,19 L45,16 C45,10.4759382 40.5228475,6 35,6 C29.4759382,6 25,10.4771525 25,16 L25,19 L45,19 L45,19 Z" id="Combined-Shape"></path>
                <path d="M25,22.5 L25,19.5" id="Line" stroke-linecap="round"></path>
                <path d="M45,22.5 L45,19.5" id="Line-Copy" stroke-linecap="round"></path>
            </g>
        </g>
    </g>
</svg>