<?xml version="1.0" encoding="UTF-8" standalone="no"?>
<svg width="70px" height="47px" viewBox="0 0 70 47" version="1.1" xmlns="http://www.w3.org/2000/svg" xmlns:xlink="http://www.w3.org/1999/xlink">
    <!-- Generator: sketchtool 40.3 (33839) - http://www.bohemiancoding.com/sketch -->
    <title>0C8F667B-628B-49D1-8801-463FD6D8B2A0</title>
    <desc>Created with sketchtool.</desc>
    <defs></defs>
    <g id="Page-1" stroke="none" stroke-width="1" fill="none" fill-rule="evenodd" stroke-linecap="round" stroke-linejoin="round">
        <g id="desktop_icons" transform="translate(-286.000000, -1002.000000)" stroke="#000000">
            <g id="back_up_n_transfer" transform="translate(286.000000, 991.000000)">
                <g id="Page-1" transform="translate(1.000000, 12.000000)">
                    <path d="M45,45 L45,26" id="Stroke-1" stroke-width="2"></path>
                    <path d="M36,42 L14,42 C6.1473,42.209 0.0003,35.634 0.0003,28 C0.0003,20.468 6.1473,14.012 14,14 C14.1943,14.012 14.6513,13.999 15,14 C18.1773,5.833 26.0913,0 35,0 C44.3683,0 52.1083,5.534 55,13 C62.9999986,14 67.9999975,21 68,28 C68.0000025,35 61.9999986,42 53.9999986,42" id="Stroke-3" stroke-width="2"></path>
                    <polyline id="Stroke-5" stroke-width="2" points="38 32 44.9999997 25 52 32"></polyline>
                </g>
            </g>
        </g>
    </g>
</svg>