<svg width="76" height="100" viewBox="0 0 76 100" xmlns="http://www.w3.org/2000/svg"><title>A18C4DBC-7780-46C4-94DE-C62C09B5A319</title><g transform="translate(-11)" fill="none" fill-rule="evenodd"><rect stroke="#000" stroke-width="2" fill="#C8C8C8" x="12" y="1" width="43" height="83" rx="7"/><rect stroke="#000" stroke-width="2" fill="#FFF" x="18" y="7" width="6" height="11" rx="3"/><rect stroke="#000" stroke-width="2" fill="#8BB7D7" x="43" y="14" width="43" height="85" rx="7"/><g transform="translate(48 19)" fill="#000"><circle cx="1.5" cy="1.5" r="1.5"/><circle cx="7.5" cy="1.5" r="1.5"/><circle cx="13.5" cy="1.5" r="1.5"/><circle cx="19.5" cy="1.5" r="1.5"/><circle cx="25.5" cy="1.5" r="1.5"/><circle cx="31.5" cy="1.5" r="1.5"/></g><g transform="translate(48 25)" fill="#000"><circle cx="1.5" cy="1.5" r="1.5"/><circle cx="7.5" cy="1.5" r="1.5"/><circle cx="13.5" cy="1.5" r="1.5"/><circle cx="19.5" cy="1.5" r="1.5"/><circle cx="25.5" cy="1.5" r="1.5"/><circle cx="31.5" cy="1.5" r="1.5"/></g><g transform="translate(48 31)" fill="#000"><circle cx="1.5" cy="1.5" r="1.5"/><circle cx="7.5" cy="1.5" r="1.5"/><circle cx="13.5" cy="1.5" r="1.5"/><circle cx="19.5" cy="1.5" r="1.5"/><circle cx="25.5" cy="1.5" r="1.5"/><circle cx="31.5" cy="1.5" r="1.5"/></g><g transform="translate(48 37)" fill="#000"><circle cx="1.5" cy="1.5" r="1.5"/><circle cx="7.5" cy="1.5" r="1.5"/><circle cx="13.5" cy="1.5" r="1.5"/><circle cx="19.5" cy="1.5" r="1.5"/><circle cx="25.5" cy="1.5" r="1.5"/><circle cx="31.5" cy="1.5" r="1.5"/></g><g transform="translate(48 43)" fill="#000"><circle cx="1.5" cy="1.5" r="1.5"/><circle cx="7.5" cy="1.5" r="1.5"/><circle cx="13.5" cy="1.5" r="1.5"/><circle cx="19.5" cy="1.5" r="1.5"/><circle cx="25.5" cy="1.5" r="1.5"/><circle cx="31.5" cy="1.5" r="1.5"/></g><g transform="translate(48 49)" fill="#000"><circle cx="1.5" cy="1.5" r="1.5"/><circle cx="7.5" cy="1.5" r="1.5"/><circle cx="13.5" cy="1.5" r="1.5"/><circle cx="19.5" cy="1.5" r="1.5"/><circle cx="25.5" cy="1.5" r="1.5"/><circle cx="31.5" cy="1.5" r="1.5"/></g><g transform="translate(48 55)" fill="#000"><circle cx="1.5" cy="1.5" r="1.5"/><circle cx="7.5" cy="1.5" r="1.5"/><circle cx="13.5" cy="1.5" r="1.5"/><circle cx="19.5" cy="1.5" r="1.5"/><circle cx="25.5" cy="1.5" r="1.5"/><circle cx="31.5" cy="1.5" r="1.5"/></g><g transform="translate(48 61)" fill="#000"><circle cx="1.5" cy="1.5" r="1.5"/><circle cx="7.5" cy="1.5" r="1.5"/><circle cx="13.5" cy="1.5" r="1.5"/><circle cx="19.5" cy="1.5" r="1.5"/><circle cx="25.5" cy="1.5" r="1.5"/><circle cx="31.5" cy="1.5" r="1.5"/></g><g transform="translate(48 67)" fill="#000"><circle cx="1.5" cy="1.5" r="1.5"/><circle cx="7.5" cy="1.5" r="1.5"/><circle cx="13.5" cy="1.5" r="1.5"/><circle cx="19.5" cy="1.5" r="1.5"/><circle cx="25.5" cy="1.5" r="1.5"/><circle cx="31.5" cy="1.5" r="1.5"/></g><g transform="translate(48 73)" fill="#000"><circle cx="1.5" cy="1.5" r="1.5"/><circle cx="7.5" cy="1.5" r="1.5"/><circle cx="13.5" cy="1.5" r="1.5"/><circle cx="19.5" cy="1.5" r="1.5"/><circle cx="25.5" cy="1.5" r="1.5"/><circle cx="31.5" cy="1.5" r="1.5"/></g><g transform="translate(48 79)" fill="#000"><circle cx="1.5" cy="1.5" r="1.5"/><circle cx="7.5" cy="1.5" r="1.5"/><circle cx="13.5" cy="1.5" r="1.5"/><circle cx="19.5" cy="1.5" r="1.5"/><circle cx="25.5" cy="1.5" r="1.5"/><circle cx="31.5" cy="1.5" r="1.5"/></g><g transform="translate(48 85)" fill="#000"><circle cx="1.5" cy="1.5" r="1.5"/><circle cx="7.5" cy="1.5" r="1.5"/><circle cx="13.5" cy="1.5" r="1.5"/><circle cx="19.5" cy="1.5" r="1.5"/><circle cx="25.5" cy="1.5" r="1.5"/><circle cx="31.5" cy="1.5" r="1.5"/></g><g transform="translate(48 91)" fill="#000"><circle cx="1.5" cy="1.5" r="1.5"/><circle cx="7.5" cy="1.5" r="1.5"/><circle cx="13.5" cy="1.5" r="1.5"/><circle cx="19.5" cy="1.5" r="1.5"/><circle cx="25.5" cy="1.5" r="1.5"/><circle cx="31.5" cy="1.5" r="1.5"/></g></g></svg>