<?xml version="1.0" encoding="UTF-8" standalone="no"?>
<svg width="100px" height="100px" viewBox="0 0 100 100" version="1.1" xmlns="http://www.w3.org/2000/svg" xmlns:xlink="http://www.w3.org/1999/xlink">
    <!-- Generator: sketchtool 39.1 (31720) - http://www.bohemiancoding.com/sketch -->
    <title>22E5D1D2-A4E5-46B4-9417-045D9225F78A</title>
    <desc>Created with sketchtool.</desc>
    <defs></defs>
    <g id="Symbols" stroke="none" stroke-width="1" fill="none" fill-rule="evenodd">
        <g id="desire_icon">
            <rect id="Rectangle-3" stroke="#000000" stroke-width="2" fill="#FFFFFF" x="13" y="1" width="42" height="83" rx="5"></rect>
            <circle id="Oval" stroke="#000000" stroke-width="2" fill="#808080" cx="21" cy="9" r="3"></circle>
            <rect id="Rectangle-3-Copy-2" stroke="#000000" stroke-width="2" fill="#EEEEEE" x="46" y="16" width="42" height="83" rx="5"></rect>
            <rect id="Rectangle" stroke="#000000" stroke-width="2" fill="#959595" x="46" y="26" width="42" height="63"></rect>
            <circle id="Oval-2" fill="#AFAFAF" cx="38" cy="12" r="2"></circle>
            <circle id="Oval-2-Copy-4" fill="#EF9011" cx="34" cy="35" r="2"></circle>
            <circle id="Oval-2-Copy-10" fill="#EF9011" cx="38" cy="77" r="2"></circle>
            <circle id="Oval-2-Copy-6" fill="#3FA4DF" cx="24" cy="62" r="2"></circle>
            <circle id="Oval-2-Copy" fill="#000000" cx="21" cy="18" r="2"></circle>
            <circle id="Oval-2-Copy-2" fill="#3FA4DF" cx="32.5" cy="19.5" r="1.5"></circle>
            <circle id="Oval-2-Copy-5" fill="#E85520" cx="26.5" cy="39.5" r="1.5"></circle>
            <circle id="Oval-2-Copy-7" fill="#E85520" cx="39.5" cy="53.5" r="1.5"></circle>
            <circle id="Oval-2-Copy-11" fill="#000000" cx="67" cy="93" r="1"></circle>
            <circle id="Oval-2-Copy-13" fill="#000000" cx="63" cy="93" r="1"></circle>
            <circle id="Oval-2-Copy-15" fill="#000000" cx="65" cy="95" r="1"></circle>
            <circle id="Oval-2-Copy-16" fill="#000000" cx="69" cy="95" r="1"></circle>
            <circle id="Oval-2-Copy-14" fill="#000000" cx="71" cy="93" r="1"></circle>
            <circle id="Oval-2-Copy-12" fill="#000000" cx="54.5" cy="21.5" r="1.5"></circle>
            <rect id="Rectangle-2" fill="#000000" x="62" y="20" width="10" height="2" rx="1"></rect>
            <circle id="Oval-2-Copy-3" fill="#C8C8C8" cx="20.5" cy="31.5" r="1.5"></circle>
            <circle id="Oval-2-Copy-8" fill="#C8C8C8" cx="30.5" cy="63.5" r="1.5"></circle>
            <circle id="Oval-2-Copy-9" fill="#C8C8C8" cx="20.5" cy="71.5" r="1.5"></circle>
        </g>
    </g>
</svg>