<svg xmlns="http://www.w3.org/2000/svg" width="538" height="53"><path d="M134.658 41.481c-7.896.066-15.327.099-17.417-.065-4.214-.36-7.034-3.08-7.365-7.078-.233-2.622-.233-4.818-.034-6.882.399-3.9 3.683-7.603 7.366-7.8 1.327-.065 4.843-.065 11.213-.032l18.579.033v-7.603s-14.797-.032-19.242-.032c-5.972-.033-8.991-.033-10.882.032-4.18.164-7.697 1.639-10.418 4.359-2.587 2.588-4.113 6.685-4.346 10.846-.132 2.229-.166 5.178 0 6.915.432 4.49 1.891 7.995 4.346 10.453 2.621 2.622 6.636 4.326 10.418 4.358 3.118.033 30.124 0 30.124 0v-7.602c.033.033-8.161.065-12.342.098M51 12v7.726h17.74V49h7.488V19.726H94V12zm-6.067 14.703c-.067-4.11-1.538-7.63-4.38-10.49-2.975-2.993-7.522-4.21-10.497-4.374-2.608-.132-12.771-.099-15.179 0-3.376.131-5.817 1.118-7.054 2.039H7.79V0H0v49h7.79s-.167-20.06.033-22.23c.301-3.881 3.31-6.94 7.121-7.269 3.076-.263 12.237-.197 15.112 0 3.978.263 6.887 3.322 7.12 7.4.068 1.512 0 22.066 0 22.066H45c-.067 0-.033-20.488-.067-22.264m135.014 22.903H167.29V12.158h12.656c11.429 0 19.339 8.067 19.339 18.657s-7.91 18.79-19.34 18.79zm0-33.53h-8.524V45.72h8.524c9.201 0 15.077-6.407 15.077-14.773s-5.876-14.872-15.077-14.872zm39.227 30.608c3.68 0 6.295-1.56 8.49-3.917l2.487 2.29c-2.712 3.088-5.973 5.18-11.074 5.18-7.394 0-13.431-5.843-13.431-14.442 0-8.034 5.456-14.441 12.914-14.441 7.975 0 12.527 6.54 12.527 14.674 0 .365 0 .796-.064 1.294h-21.341c.613 5.976 4.778 9.362 9.492 9.362zm7.845-12.416c-.42-5.013-3.228-9.428-8.588-9.428-4.681 0-8.233 4.017-8.75 9.428h17.339zm20.017 15.902c-3.842 0-8.103-1.56-11.138-4.05l2.034-2.955c2.905 2.258 6.134 3.52 9.298 3.52 3.229 0 5.553-1.727 5.553-4.383v-.1c0-2.788-3.164-3.85-6.715-4.88-4.23-1.228-8.911-2.722-8.911-7.801v-.1c0-4.747 3.842-7.901 9.169-7.901 3.293 0 6.91 1.162 9.686 3.054l-1.808 3.088c-2.486-1.66-5.36-2.69-7.975-2.69-3.164 0-5.198 1.727-5.198 4.017v.1c0 2.623 3.326 3.652 6.91 4.747 4.164 1.295 8.62 2.955 8.62 7.902v.1c.032 5.278-4.165 8.332-9.525 8.332zm17.112-34.26v-4.55h4.584v4.55h-4.584zm.258 33.696V21.95h4.003v27.655h-4.003zm17.337 0h-4.003V21.95h4.003v7.238c1.97-4.615 5.876-7.902 10.978-7.702v4.448h-.323c-5.876 0-10.655 4.35-10.655 12.682v10.989zm27.831-2.922c3.68 0 6.295-1.56 8.49-3.917l2.487 2.29c-2.712 3.088-5.973 5.18-11.074 5.18-7.394 0-13.431-5.843-13.431-14.442 0-8.034 5.456-14.441 12.914-14.441 7.943 0 12.527 6.54 12.527 14.674 0 .365 0 .796-.064 1.294h-21.341c.58 5.976 4.746 9.362 9.492 9.362zm7.845-12.416c-.42-5.013-3.228-9.428-8.588-9.428-4.681 0-8.233 4.017-8.75 9.428h17.338zm28.444-12.416l-3.003-2.258c3.261-5.013 6.716-7.967 13.108-7.967 6.619 0 11.3 4.482 11.3 10.656 0 5.511-2.809 8.864-9.201 14.608l-9.718 8.864h19.307v3.85h-25.441v-3.253l13.204-11.984c5.554-5.146 7.588-8.034 7.588-11.753 0-4.382-3.39-7.17-7.33-7.17-4.196 0-6.908 2.224-9.814 6.407zm43.65-9.96h3.003v37.714h-4.068V16.308l-6.877 2.191-1.001-3.42zm32.392 36.885c-2.613 0-4.267-1.351-5.358-2.828v6.662h-2.084V35.17h2.084v2.67c1.125-1.603 2.778-2.954 5.358-2.954 3.374 0 6.682 2.514 6.682 6.914 0 4.431-3.308 6.977-6.682 6.977zm-.397-12.1c-2.613 0-5.06 2.074-5.06 5.154 0 3.112 2.48 5.186 5.06 5.186 2.713 0 4.929-1.917 4.929-5.154 0-3.174-2.25-5.186-4.929-5.186zm12.437 11.817h-2.083V35.17h2.083v3.488c1.026-2.232 3.077-3.804 5.723-3.708v2.137h-.166c-3.076 0-5.557 2.074-5.557 6.097v5.311zm14.058.315c-4.2 0-7.277-3.143-7.277-6.915 0-3.771 3.076-6.977 7.31-6.977 4.2 0 7.277 3.143 7.277 6.914.033 3.803-3.076 6.978-7.31 6.978zm0-12.132c-3.043 0-5.127 2.294-5.127 5.186 0 2.891 2.216 5.186 5.193 5.186 3.043 0 5.16-2.295 5.16-5.155 0-2.923-2.249-5.217-5.226-5.217zm26.566-25.28h21v3.835h-17.408l-.777 11.733c2.136-.942 4.174-1.625 7.184-1.625 7.086 0 12.62 4.258 12.62 11.245 0 7.215-5.437 12.09-13.041 12.09-5.21 0-9.74-2.502-13.04-5.817l2.718-2.99c3.17 3.087 6.665 5.037 10.387 5.037 5.21 0 8.8-3.445 8.8-8.158 0-4.614-3.688-7.735-9.06-7.735-3.073 0-5.533.943-7.668 2.08l-2.75-1.82 1.034-17.873zm47.825 37.278c-11.455 0-18.574-8.385-18.574-18.915 0-10.108 7.346-19.013 18.315-19.013 6.148 0 9.966 1.788 13.623 4.875l-2.654 3.153c-2.815-2.47-5.953-4.193-11.098-4.193-8.09 0-13.882 6.858-13.882 15.08 0 8.808 5.566 15.308 14.432 15.308 4.174 0 8.025-1.625 10.548-3.672v-9.1h-11.098v-3.706h15.078v14.625c-3.43 2.99-8.51 5.558-14.69 5.558z" fill="#FFF"/></svg>