<?xml version="1.0" encoding="utf-8"?>
<!-- Generator: Adobe Illustrator 23.0.0, SVG Export Plug-In . SVG Version: 6.00 Build 0)  -->
<svg version="1.1" id="圖層_1" xmlns="http://www.w3.org/2000/svg" xmlns:xlink="http://www.w3.org/1999/xlink" x="0px" y="0px"
	 viewBox="0 0 50 50" style="enable-background:new 0 0 50 50;" xml:space="preserve">
<style type="text/css">
	.st0{fill:#4A4A4A;}
</style>
<g>
	<path class="st0" d="M21.6,22.6l-0.9,1v3l0.9,1h1.7l1-1v-3l-1-1H21.6z M22,26.8l-0.4-0.4V24l0.4-0.5h1l0.5,0.5v2.3L23,26.8H22z"/>
	<polygon class="st0" points="18.2,23.8 17.5,24.6 17.2,24.6 16.6,23.8 16.6,22.6 15.8,22.6 15.8,24.1 16.5,25.1 15.8,26.1 
		15.8,27.5 16.6,27.5 16.6,26.4 17.2,25.5 17.5,25.5 18.2,26.4 18.2,27.5 19,27.5 19,26.1 18.3,25.1 19,24.1 19,22.6 18.2,22.6 	"/>
	<path class="st0" d="M26,22.6v5h2.3l1-1v-3l-1-1H26z M26.8,26.8v-3.3h1.1l0.5,0.5v2.3l-0.5,0.5H26.8z"/>
	<polygon class="st0" points="33.5,26.1 33,26.8 32.3,26.8 31.8,26.1 31.8,22.6 31,22.6 31,26.6 31.9,27.5 33.3,27.5 34.3,26.6 
		34.3,22.6 33.5,22.6 	"/>
	<polygon class="st0" points="10.8,27.5 13.8,27.5 13.8,26.8 11.7,26.8 11.7,25.5 13.4,25.5 13.4,24.6 11.7,24.6 11.7,23.4 
		13.8,23.4 13.8,22.6 10.8,22.6 	"/>
	<polygon class="st0" points="36.8,23.8 37.1,23.4 37.9,23.4 38.6,24.1 39.1,23.6 38.2,22.6 36.8,22.6 35.9,23.6 35.9,24 38.3,26.4 
		37.9,26.8 37.1,26.8 36.5,26 35.9,26.6 36.8,27.5 38.2,27.5 39.2,26.6 39.2,26.1 	"/>
	<path class="st0" d="M25,1.6C12.1,1.6,1.7,12.2,1.7,25.1S12.1,48.3,25,48.3s23.3-10.5,23.3-23.3S37.9,1.6,25,1.6z M47.2,25.1
		c0,5.8-2.3,11.1-5.9,15.1l-0.8-0.8c3.5-3.8,5.6-8.8,5.6-14.3c0-5.6-2.2-10.7-5.8-14.5l0.8-0.8C44.9,13.8,47.2,19.1,47.2,25.1z
		 M25,42.8c-9.8,0-17.7-8-17.7-17.7S15.2,7.2,25,7.2s17.7,8,17.7,17.7S34.8,42.8,25,42.8z M37.9,11.4C34.5,8.2,30,6.2,25,6.2
		c-4.9,0-9.3,1.9-12.7,4.9l-0.9-0.9C15,7,19.7,5,24.9,5c5.3,0,10.2,2.1,13.8,5.5L37.9,11.4z M11.6,11.9c-3.3,3.4-5.4,8-5.4,13.2
		c0,5,2,9.5,5.2,12.9l-0.9,0.9C7.1,35.2,5,30.4,5,25.1c0-5.5,2.2-10.4,5.7-14L11.6,11.9z M12.1,38.8C15.5,42,20,44,25,44
		c5.1,0,9.8-2.1,13.1-5.4l0.9,0.8c-3.6,3.5-8.6,5.7-14,5.7c-5.3,0-10.2-2.1-13.8-5.5L12.1,38.8z M38.9,37.6
		c3.1-3.3,4.9-7.8,4.9-12.7c0-5-2-9.5-5.2-12.9l0.9-0.9c3.4,3.6,5.5,8.4,5.5,13.8c0,5.2-2,9.9-5.3,13.5L38.9,37.6z M40.3,9l-0.8,0.8
		C35.7,6.2,30.6,3.9,25,3.9c-5.5,0-10.5,2.1-14.3,5.6L9.9,8.8c4-3.7,9.2-5.9,15.1-5.9C30.9,2.8,36.3,5.2,40.3,9z M2.8,25.1
		c0-6.1,2.4-11.6,6.4-15.6l0.8,0.8c-3.7,3.8-6.1,9-6.1,14.8c0,5.6,2.2,10.7,5.8,14.5l-0.8,0.8C5.1,36.3,2.8,31,2.8,25.1z M9.7,41.1
		l0.8-0.8c3.8,3.6,8.9,5.8,14.5,5.8c5.7,0,11-2.3,14.8-6.1l0.8,0.8c-4,3.9-9.5,6.4-15.6,6.4C19.1,47.2,13.7,44.9,9.7,41.1z"/>
</g>
</svg>
